<mxfile host="Electron" modified="2024-05-28T08:36:08.654Z" agent="Mozilla/5.0 (Macintosh; Intel Mac OS X 10_15_7) AppleWebKit/537.36 (KHTML, like Gecko) draw.io/24.4.8 Chrome/124.0.6367.207 Electron/30.0.6 Safari/537.36" etag="90o1EkgN0BJ5l8Ixr_QN" version="24.4.8" type="device">
  <diagram name="第 1 页" id="S0Ldco9_ZIg3RmQwcMjX">
    <mxGraphModel dx="1728" dy="674" grid="1" gridSize="10" guides="1" tooltips="1" connect="1" arrows="1" fold="1" page="1" pageScale="1" pageWidth="827" pageHeight="1169" math="0" shadow="0">
      <root>
        <mxCell id="0" />
        <mxCell id="1" parent="0" />
        <mxCell id="ZBlZFPvVEYw34AKnjuiz-1" value="&lt;font style=&quot;font-size: 14px&quot; face=&quot;Comic Sans MS&quot;&gt;发布动态&lt;br&gt;【推模式】&lt;/font&gt;" style="rounded=1;whiteSpace=wrap;html=1;strokeWidth=2;fillWeight=4;hachureGap=8;hachureAngle=45;sketch=1;fillColor=none;" parent="1" vertex="1">
          <mxGeometry x="110" y="130" width="120" height="60" as="geometry" />
        </mxCell>
        <mxCell id="ZBlZFPvVEYw34AKnjuiz-2" value="&lt;font face=&quot;Comic Sans MS&quot;&gt;动态新增&lt;br&gt;事件&lt;/font&gt;" style="ellipse;shape=doubleEllipse;whiteSpace=wrap;html=1;aspect=fixed;fillColor=none;sketch=1;strokeColor=#00CC00;" parent="1" vertex="1">
          <mxGeometry x="-70" y="124" width="70" height="70" as="geometry" />
        </mxCell>
        <mxCell id="ZBlZFPvVEYw34AKnjuiz-3" value="" style="edgeStyle=elbowEdgeStyle;elbow=vertical;endArrow=classic;html=1;entryX=0;entryY=0.5;entryDx=0;entryDy=0;exitX=1;exitY=0.5;exitDx=0;exitDy=0;sketch=1;" parent="1" source="ZBlZFPvVEYw34AKnjuiz-2" target="ZBlZFPvVEYw34AKnjuiz-1" edge="1">
          <mxGeometry width="50" height="50" relative="1" as="geometry">
            <mxPoint y="70" as="sourcePoint" />
            <mxPoint x="50" y="20" as="targetPoint" />
            <Array as="points">
              <mxPoint x="60" y="160" />
              <mxPoint x="20" y="130" />
            </Array>
          </mxGeometry>
        </mxCell>
        <mxCell id="ZBlZFPvVEYw34AKnjuiz-4" value="&lt;font face=&quot;Comic Sans MS&quot;&gt;根据动态发布者&lt;br&gt;获取活跃粉丝列表&lt;/font&gt;" style="rounded=1;whiteSpace=wrap;html=1;strokeWidth=2;fillWeight=4;hachureGap=8;hachureAngle=45;sketch=1;fillColor=none;" parent="1" vertex="1">
          <mxGeometry x="110" y="250" width="120" height="60" as="geometry" />
        </mxCell>
        <mxCell id="ZBlZFPvVEYw34AKnjuiz-5" value="" style="edgeStyle=elbowEdgeStyle;elbow=vertical;endArrow=classic;html=1;entryX=0.5;entryY=0;entryDx=0;entryDy=0;exitX=0.5;exitY=1;exitDx=0;exitDy=0;sketch=1;" parent="1" source="ZBlZFPvVEYw34AKnjuiz-1" target="ZBlZFPvVEYw34AKnjuiz-4" edge="1">
          <mxGeometry width="50" height="50" relative="1" as="geometry">
            <mxPoint x="-70" y="210" as="sourcePoint" />
            <mxPoint x="-20" y="160" as="targetPoint" />
          </mxGeometry>
        </mxCell>
        <mxCell id="ZBlZFPvVEYw34AKnjuiz-6" value="&lt;font color=&quot;#0000ff&quot; face=&quot;Comic Sans MS&quot;&gt;遍历粉丝userId&lt;/font&gt;" style="edgeStyle=elbowEdgeStyle;elbow=vertical;endArrow=classic;html=1;entryX=0.5;entryY=0;entryDx=0;entryDy=0;exitX=0.558;exitY=0.983;exitDx=0;exitDy=0;exitPerimeter=0;sketch=1;" parent="1" source="ZBlZFPvVEYw34AKnjuiz-4" target="ZBlZFPvVEYw34AKnjuiz-7" edge="1">
          <mxGeometry width="50" height="50" relative="1" as="geometry">
            <mxPoint x="30" y="320" as="sourcePoint" />
            <mxPoint x="177" y="300" as="targetPoint" />
            <Array as="points">
              <mxPoint x="177" y="330" />
              <mxPoint x="340" y="300" />
            </Array>
          </mxGeometry>
        </mxCell>
        <mxCell id="ZBlZFPvVEYw34AKnjuiz-7" value="&lt;font face=&quot;Comic Sans MS&quot;&gt;feed流&lt;br&gt;是否存在&lt;br&gt;【feed_list_${userId}】&lt;/font&gt;" style="rhombus;whiteSpace=wrap;html=1;strokeWidth=2;fillWeight=-1;hachureGap=8;fillStyle=cross-hatch;sketch=1;fillColor=none;strokeColor=#FFB570;" parent="1" vertex="1">
          <mxGeometry x="116" y="393" width="120" height="60" as="geometry" />
        </mxCell>
        <mxCell id="ZBlZFPvVEYw34AKnjuiz-8" value="结束" style="ellipse;whiteSpace=wrap;html=1;strokeWidth=2;fillWeight=2;hachureGap=8;fillStyle=dots;sketch=1;fillColor=none;strokeColor=#FF0000;" parent="1" vertex="1">
          <mxGeometry x="-95" y="390" width="120" height="60" as="geometry" />
        </mxCell>
        <mxCell id="ZBlZFPvVEYw34AKnjuiz-9" value="" style="edgeStyle=elbowEdgeStyle;elbow=vertical;endArrow=classic;html=1;exitX=0;exitY=0.5;exitDx=0;exitDy=0;entryX=1;entryY=0.5;entryDx=0;entryDy=0;sketch=1;" parent="1" edge="1">
          <mxGeometry width="50" height="50" relative="1" as="geometry">
            <mxPoint x="116" y="425" as="sourcePoint" />
            <mxPoint x="25" y="422" as="targetPoint" />
            <Array as="points">
              <mxPoint x="80" y="422" />
            </Array>
          </mxGeometry>
        </mxCell>
        <mxCell id="ZBlZFPvVEYw34AKnjuiz-10" value="不存在" style="edgeLabel;html=1;align=center;verticalAlign=middle;resizable=0;points=[];" parent="ZBlZFPvVEYw34AKnjuiz-9" vertex="1" connectable="0">
          <mxGeometry x="0.1702" y="-3" relative="1" as="geometry">
            <mxPoint as="offset" />
          </mxGeometry>
        </mxCell>
        <mxCell id="ZBlZFPvVEYw34AKnjuiz-11" value="&lt;font face=&quot;Comic Sans MS&quot;&gt;添加动态到feed流&lt;/font&gt;" style="rounded=1;whiteSpace=wrap;html=1;strokeWidth=2;fillWeight=4;hachureGap=8;hachureAngle=45;sketch=1;fillColor=none;" parent="1" vertex="1">
          <mxGeometry x="116" y="500" width="120" height="60" as="geometry" />
        </mxCell>
        <mxCell id="ZBlZFPvVEYw34AKnjuiz-12" value="" style="edgeStyle=segmentEdgeStyle;endArrow=classic;html=1;entryX=0.5;entryY=0;entryDx=0;entryDy=0;exitX=0.5;exitY=1;exitDx=0;exitDy=0;sketch=1;" parent="1" source="ZBlZFPvVEYw34AKnjuiz-7" target="ZBlZFPvVEYw34AKnjuiz-11" edge="1">
          <mxGeometry width="50" height="50" relative="1" as="geometry">
            <mxPoint x="40" y="510" as="sourcePoint" />
            <mxPoint x="90" y="460" as="targetPoint" />
          </mxGeometry>
        </mxCell>
        <mxCell id="ZBlZFPvVEYw34AKnjuiz-13" value="完成" style="ellipse;whiteSpace=wrap;html=1;strokeWidth=2;fillWeight=2;hachureGap=8;fillStyle=dots;sketch=1;fillColor=none;strokeColor=#0000FF;" parent="1" vertex="1">
          <mxGeometry x="116" y="630" width="120" height="60" as="geometry" />
        </mxCell>
        <mxCell id="ZBlZFPvVEYw34AKnjuiz-14" value="" style="edgeStyle=elbowEdgeStyle;elbow=vertical;endArrow=classic;html=1;entryX=0.5;entryY=0;entryDx=0;entryDy=0;exitX=0.5;exitY=1;exitDx=0;exitDy=0;sketch=1;" parent="1" source="ZBlZFPvVEYw34AKnjuiz-11" target="ZBlZFPvVEYw34AKnjuiz-13" edge="1">
          <mxGeometry width="50" height="50" relative="1" as="geometry">
            <mxPoint x="70" y="630" as="sourcePoint" />
            <mxPoint x="120" y="580" as="targetPoint" />
          </mxGeometry>
        </mxCell>
        <mxCell id="ZBlZFPvVEYw34AKnjuiz-15" value="" style="shape=ext;double=1;rounded=1;whiteSpace=wrap;html=1;sketch=1;strokeColor=#0000FF;fillColor=none;" parent="1" vertex="1">
          <mxGeometry x="340" y="140" width="630" height="460" as="geometry" />
        </mxCell>
        <mxCell id="ZBlZFPvVEYw34AKnjuiz-16" value="" style="edgeStyle=elbowEdgeStyle;elbow=vertical;endArrow=classic;html=1;exitX=1;exitY=0.5;exitDx=0;exitDy=0;sketch=1;" parent="1" source="ZBlZFPvVEYw34AKnjuiz-4" edge="1">
          <mxGeometry width="50" height="50" relative="1" as="geometry">
            <mxPoint x="270" y="300" as="sourcePoint" />
            <mxPoint x="339" y="280" as="targetPoint" />
            <Array as="points">
              <mxPoint x="330" y="280" />
              <mxPoint x="340" y="280" />
              <mxPoint x="340" y="280" />
              <mxPoint x="320" y="280" />
            </Array>
          </mxGeometry>
        </mxCell>
        <mxCell id="ZBlZFPvVEYw34AKnjuiz-17" value="&lt;font face=&quot;Comic Sans MS&quot;&gt;获取活跃粉丝列表&lt;br&gt;&lt;br&gt;&lt;/font&gt;" style="ellipse;whiteSpace=wrap;html=1;strokeWidth=2;fillWeight=2;hachureGap=8;fillStyle=dots;sketch=1;fillColor=none;strokeColor=#00CC00;" parent="1" vertex="1">
          <mxGeometry x="460" y="160" width="120" height="60" as="geometry" />
        </mxCell>
        <mxCell id="ZBlZFPvVEYw34AKnjuiz-18" value="&lt;font face=&quot;Comic Sans MS&quot;&gt;是否存在&lt;br&gt;【active_fans_list_$userId】&lt;/font&gt;" style="rhombus;whiteSpace=wrap;html=1;strokeWidth=2;fillWeight=-1;hachureGap=8;fillStyle=cross-hatch;sketch=1;fillColor=none;strokeColor=#FFB570;" parent="1" vertex="1">
          <mxGeometry x="460" y="270" width="120" height="60" as="geometry" />
        </mxCell>
        <mxCell id="ZBlZFPvVEYw34AKnjuiz-19" value="" style="edgeStyle=elbowEdgeStyle;elbow=vertical;endArrow=classic;html=1;entryX=0.5;entryY=0;entryDx=0;entryDy=0;exitX=0.5;exitY=1;exitDx=0;exitDy=0;sketch=1;" parent="1" source="ZBlZFPvVEYw34AKnjuiz-17" target="ZBlZFPvVEYw34AKnjuiz-18" edge="1">
          <mxGeometry width="50" height="50" relative="1" as="geometry">
            <mxPoint x="590" y="260" as="sourcePoint" />
            <mxPoint x="640" y="210" as="targetPoint" />
          </mxGeometry>
        </mxCell>
        <mxCell id="ZBlZFPvVEYw34AKnjuiz-20" value="分页获取粉丝列表" style="rounded=1;whiteSpace=wrap;html=1;strokeWidth=2;fillWeight=4;hachureGap=8;hachureAngle=45;sketch=1;fillColor=none;" parent="1" vertex="1">
          <mxGeometry x="460" y="382" width="120" height="60" as="geometry" />
        </mxCell>
        <mxCell id="ZBlZFPvVEYw34AKnjuiz-21" value="&lt;font face=&quot;Comic Sans MS&quot;&gt;存在&lt;/font&gt;" style="edgeStyle=elbowEdgeStyle;elbow=vertical;endArrow=classic;html=1;entryX=0.5;entryY=0;entryDx=0;entryDy=0;exitX=0.5;exitY=1;exitDx=0;exitDy=0;sketch=1;" parent="1" source="ZBlZFPvVEYw34AKnjuiz-18" target="ZBlZFPvVEYw34AKnjuiz-20" edge="1">
          <mxGeometry width="50" height="50" relative="1" as="geometry">
            <mxPoint x="380" y="390" as="sourcePoint" />
            <mxPoint x="430" y="340" as="targetPoint" />
          </mxGeometry>
        </mxCell>
        <mxCell id="ZBlZFPvVEYw34AKnjuiz-22" value="&lt;font face=&quot;Comic Sans MS&quot;&gt;粉丝活跃状态&lt;br&gt;【active_user_status_${userId}】&lt;/font&gt;" style="ellipse;shape=doubleEllipse;whiteSpace=wrap;html=1;sketch=1;strokeColor=#FFB570;fillColor=none;" parent="1" vertex="1">
          <mxGeometry x="650" y="383" width="100" height="60" as="geometry" />
        </mxCell>
        <mxCell id="ZBlZFPvVEYw34AKnjuiz-23" value="" style="edgeStyle=elbowEdgeStyle;elbow=vertical;endArrow=classic;html=1;entryX=0.06;entryY=0.3;entryDx=0;entryDy=0;entryPerimeter=0;sketch=1;" parent="1" target="ZBlZFPvVEYw34AKnjuiz-22" edge="1">
          <mxGeometry width="50" height="50" relative="1" as="geometry">
            <mxPoint x="580" y="400" as="sourcePoint" />
            <mxPoint x="630" y="350" as="targetPoint" />
          </mxGeometry>
        </mxCell>
        <mxCell id="ZBlZFPvVEYw34AKnjuiz-24" value="&lt;font face=&quot;Comic Sans MS&quot;&gt;清除不活跃的粉丝&lt;/font&gt;" style="rounded=1;whiteSpace=wrap;html=1;strokeWidth=2;fillWeight=4;hachureGap=8;hachureAngle=45;sketch=1;" parent="1" vertex="1">
          <mxGeometry x="460" y="510" width="120" height="50" as="geometry" />
        </mxCell>
        <mxCell id="ZBlZFPvVEYw34AKnjuiz-25" value="" style="edgeStyle=segmentEdgeStyle;endArrow=classic;html=1;entryX=0.5;entryY=0;entryDx=0;entryDy=0;exitX=0.5;exitY=1;exitDx=0;exitDy=0;sketch=1;" parent="1" source="ZBlZFPvVEYw34AKnjuiz-20" target="ZBlZFPvVEYw34AKnjuiz-24" edge="1">
          <mxGeometry width="50" height="50" relative="1" as="geometry">
            <mxPoint x="390" y="480" as="sourcePoint" />
            <mxPoint x="440" y="430" as="targetPoint" />
          </mxGeometry>
        </mxCell>
        <mxCell id="ZBlZFPvVEYw34AKnjuiz-26" value="&lt;font face=&quot;Comic Sans MS&quot;&gt;RPC从粉丝服务&lt;br&gt;获取粉丝列表&lt;br&gt;【上限2000条】&lt;/font&gt;" style="rounded=1;whiteSpace=wrap;html=1;strokeWidth=2;fillWeight=4;hachureGap=8;hachureAngle=45;sketch=1;fillColor=none;" parent="1" vertex="1">
          <mxGeometry x="800" y="270" width="120" height="60" as="geometry" />
        </mxCell>
        <mxCell id="ZBlZFPvVEYw34AKnjuiz-27" value="&lt;font face=&quot;Comic Sans MS&quot;&gt;不存在&lt;/font&gt;" style="edgeStyle=elbowEdgeStyle;elbow=vertical;endArrow=classic;html=1;entryX=0;entryY=0.5;entryDx=0;entryDy=0;exitX=1;exitY=0.5;exitDx=0;exitDy=0;sketch=1;" parent="1" source="ZBlZFPvVEYw34AKnjuiz-18" target="ZBlZFPvVEYw34AKnjuiz-26" edge="1">
          <mxGeometry width="50" height="50" relative="1" as="geometry">
            <mxPoint x="580" y="290" as="sourcePoint" />
            <mxPoint x="630" y="240" as="targetPoint" />
          </mxGeometry>
        </mxCell>
        <mxCell id="ZBlZFPvVEYw34AKnjuiz-28" value="" style="edgeStyle=elbowEdgeStyle;elbow=vertical;endArrow=classic;html=1;exitX=0.092;exitY=1;exitDx=0;exitDy=0;entryX=0.5;entryY=0;entryDx=0;entryDy=0;sketch=1;exitPerimeter=0;" parent="1" source="ZBlZFPvVEYw34AKnjuiz-26" target="ZBlZFPvVEYw34AKnjuiz-22" edge="1">
          <mxGeometry width="50" height="50" relative="1" as="geometry">
            <mxPoint x="630" y="400" as="sourcePoint" />
            <mxPoint x="680" y="350" as="targetPoint" />
          </mxGeometry>
        </mxCell>
        <mxCell id="ZBlZFPvVEYw34AKnjuiz-29" value="添加活跃粉丝" style="rounded=1;whiteSpace=wrap;html=1;strokeWidth=2;fillWeight=4;hachureGap=8;hachureAngle=45;sketch=1;fillColor=none;" parent="1" vertex="1">
          <mxGeometry x="800" y="500" width="120" height="60" as="geometry" />
        </mxCell>
        <mxCell id="ZBlZFPvVEYw34AKnjuiz-30" value="" style="edgeStyle=elbowEdgeStyle;elbow=vertical;endArrow=classic;html=1;entryX=0.5;entryY=0;entryDx=0;entryDy=0;exitX=0.5;exitY=1;exitDx=0;exitDy=0;sketch=1;" parent="1" source="ZBlZFPvVEYw34AKnjuiz-26" target="ZBlZFPvVEYw34AKnjuiz-29" edge="1">
          <mxGeometry width="50" height="50" relative="1" as="geometry">
            <mxPoint x="850" y="400" as="sourcePoint" />
            <mxPoint x="900" y="350" as="targetPoint" />
          </mxGeometry>
        </mxCell>
        <mxCell id="ZBlZFPvVEYw34AKnjuiz-31" value="关注事件" style="ellipse;shape=doubleEllipse;whiteSpace=wrap;html=1;aspect=fixed;sketch=1;fillColor=none;strokeColor=#00CC00;" parent="1" vertex="1">
          <mxGeometry x="790" y="160" width="70" height="70" as="geometry" />
        </mxCell>
        <mxCell id="ZBlZFPvVEYw34AKnjuiz-32" value="取关事件" style="ellipse;shape=doubleEllipse;whiteSpace=wrap;html=1;aspect=fixed;sketch=1;fillColor=none;strokeColor=#00CC00;" parent="1" vertex="1">
          <mxGeometry x="700" y="160" width="70" height="70" as="geometry" />
        </mxCell>
      </root>
    </mxGraphModel>
  </diagram>
</mxfile>
